<?xml version="1.0" standalone="no"?>
<!DOCTYPE svg PUBLIC "-//W3C//DTD SVG 20010904//EN"
 "http://www.w3.org/TR/2001/REC-SVG-20010904/DTD/svg10.dtd">
<svg version="1.0" xmlns="http://www.w3.org/2000/svg"
 width="1306.000000pt" height="1205.000000pt" viewBox="0 0 1306.000000 1205.000000"
 preserveAspectRatio="xMidYMid meet">

<g transform="translate(0.000000,1205.000000) scale(0.100000,-0.100000)"
fill="#000000" stroke="none">
<path d="M0 6025 l0 -6025 6530 0 6530 0 0 6025 0 6025 -6530 0 -6530 0 0
-6025z m8720 5280 c69 -43 148 -92 175 -110 50 -32 137 -86 335 -208 224 -137
1138 -695 1195 -729 33 -19 123 -73 200 -120 77 -47 383 -230 680 -408 297
-177 549 -331 560 -341 20 -19 20 -32 19 -1507 0 -818 -3 -1504 -8 -1525 -6
-32 -16 -44 -64 -74 -148 -94 -203 -131 -274 -185 -42 -32 -80 -58 -84 -58
-19 0 275 207 392 276 18 11 19 43 22 969 1 527 0 956 -4 953 -3 -4 -5 -400
-5 -880 1 -490 -3 -879 -8 -887 -5 -8 -8 17 -6 65 2 44 1 65 -2 47 -2 -17 -11
-37 -19 -43 -8 -7 -14 -19 -14 -26 0 -8 -11 -20 -25 -26 -14 -6 -25 -17 -25
-25 0 -12 -13 -16 -45 -16 -6 0 -11 -8 -11 -17 0 -10 5 -16 12 -13 6 2 14 -3
17 -11 4 -11 -8 -25 -38 -46 -24 -16 -48 -30 -53 -30 -5 0 -15 -7 -22 -15 -7
-8 -16 -12 -21 -9 -5 3 -9 1 -9 -4 0 -5 -10 -14 -22 -20 -13 -6 -46 -24 -74
-41 -37 -21 -51 -26 -51 -15 0 8 7 14 16 14 14 1 14 2 -1 14 -15 11 -14 13 12
14 51 3 59 5 54 13 -2 5 -16 4 -30 -1 -42 -16 -61 2 -67 62 -4 41 -1 57 12 73
21 24 18 115 -4 115 -7 0 -15 -5 -17 -12 -3 -7 -11 -9 -24 -3 -17 7 -17 8 -1
12 18 5 24 47 9 57 -10 6 -52 -30 -52 -44 0 -6 -5 -10 -11 -10 -7 0 -9 9 -4
28 5 15 8 35 9 45 0 9 6 17 12 17 25 0 54 57 54 104 0 40 -3 46 -21 46 -18 0
-20 -5 -18 -45 2 -24 0 -47 -4 -51 -4 -4 -7 -2 -7 4 0 6 -10 13 -22 15 l-23 4
23 8 c12 4 22 15 22 25 0 10 -10 21 -22 25 l-23 8 22 4 c19 4 21 7 10 23 -9
15 -9 22 1 32 9 9 12 8 12 -6 0 -25 17 -11 22 19 6 29 -10 45 -23 24 -6 -10
-16 -5 -43 23 -40 42 -43 48 -19 48 15 0 14 2 -2 20 -11 12 -16 29 -13 44 4
17 1 23 -9 19 -8 -3 -13 -22 -14 -47 0 -37 -1 -39 -11 -18 -8 16 -8 29 -1 46
14 30 2 50 -26 41 -19 -6 -21 -3 -20 42 l0 48 17 -33 c14 -29 19 -32 46 -26
36 7 59 24 33 24 -13 0 -17 9 -17 40 0 30 -4 40 -16 40 -10 0 -14 5 -10 15 3
9 0 24 -6 35 -10 16 -9 22 10 38 32 28 29 54 -5 50 -17 -2 -27 -8 -25 -17 1
-7 -3 -19 -9 -27 -9 -11 -8 -18 1 -30 11 -12 10 -18 -3 -32 -16 -15 -17 0 -15
218 1 129 3 214 5 188 4 -48 24 -68 47 -49 7 6 21 9 32 7 10 -2 14 -1 8 1 -6
2 -11 22 -11 43 0 33 3 40 20 40 18 0 18 1 3 25 -15 23 -15 26 5 46 11 11 18
27 15 35 -7 17 -26 9 -26 -10 0 -7 -19 -17 -42 -22 -33 -7 -44 -15 -49 -34 -4
-14 -7 30 -8 98 -1 119 0 122 21 122 20 0 20 1 3 19 -16 19 -16 21 4 50 12 16
21 43 21 61 0 24 4 31 15 26 11 -4 15 2 15 24 0 22 -4 28 -15 24 -12 -5 -15 4
-15 45 0 39 4 51 15 51 8 0 15 9 15 20 0 13 -5 17 -14 14 -11 -4 -14 5 -14 38
1 66 0 68 -27 68 -14 0 -25 5 -25 10 0 6 7 10 17 10 15 0 15 1 0 18 -14 16
-17 54 -20 283 -1 145 -4 -251 -5 -881 -4 -1410 -6 -1541 -20 -1566 -6 -10
-12 -14 -12 -8 0 6 -30 21 -67 34 -38 12 -72 27 -78 33 -7 7 -6 8 3 3 28 -16
9 3 -35 34 -27 19 -50 37 -53 41 -9 12 -93 49 -113 49 -11 0 -15 5 -11 11 4 8
0 9 -15 4 -17 -5 -20 -3 -14 11 4 12 3 15 -6 10 -7 -5 -21 0 -32 10 -10 9 -19
13 -19 9 0 -4 -11 4 -25 19 -13 14 -28 26 -34 26 -37 0 3 -32 175 -136 107
-66 266 -163 354 -216 87 -54 183 -110 212 -125 89 -46 452 -267 466 -283 11
-12 12 -330 8 -1770 l-4 -1755 -24 -18 c-12 -11 -171 -105 -353 -209 -392
-226 -1020 -591 -1195 -696 -69 -41 -192 -114 -275 -162 -82 -48 -233 -135
-335 -195 -102 -59 -210 -122 -240 -140 -101 -58 -654 -382 -749 -439 -52 -31
-100 -56 -105 -56 -14 0 564 344 1024 611 36 20 187 108 335 195 149 86 354
205 456 265 102 59 219 127 260 152 41 24 146 86 234 137 507 294 834 483 901
521 45 26 51 33 51 62 0 17 -2 24 -4 14 -3 -13 -10 -16 -21 -11 -45 19 -64 11
-277 -112 -121 -69 -254 -145 -295 -169 -41 -23 -102 -58 -135 -77 -33 -19
-105 -61 -160 -93 -55 -31 -104 -61 -110 -65 -5 -4 -28 -18 -49 -30 -112 -62
-407 -232 -521 -300 -143 -85 -644 -378 -715 -418 -25 -14 -83 -48 -130 -75
-47 -27 -105 -60 -130 -74 -25 -14 -99 -57 -165 -95 -66 -39 -145 -85 -175
-103 -211 -123 -312 -183 -357 -212 -28 -18 -57 -33 -63 -33 -13 0 -326 167
-482 258 -21 12 -53 30 -70 41 -41 23 -344 206 -458 276 -47 29 -215 132 -375
230 -360 220 -337 206 -353 222 -11 11 -11 13 1 13 9 0 17 -6 20 -12 3 -9 10
-8 26 6 11 11 21 16 21 12 0 -4 24 11 53 34 30 22 62 40 71 40 9 0 14 5 11 10
-3 6 -1 10 4 10 22 0 174 130 153 130 -4 0 3 6 14 13 45 26 164 109 170 118 3
6 0 16 -6 24 -10 12 -9 15 3 15 8 0 20 6 26 14 7 8 31 17 54 21 41 7 107 42
107 58 0 4 7 7 15 7 8 0 15 5 15 11 0 6 7 9 15 6 8 -4 17 -2 20 3 3 5 40 26
83 46 42 21 100 52 127 69 28 18 83 47 123 65 39 18 72 37 72 42 0 5 4 7 9 3
5 -3 13 0 17 7 4 7 4 10 0 7 -4 -4 -24 8 -44 27 -23 21 -33 37 -27 42 9 8 367
214 625 360 63 36 124 71 136 78 l21 12 6 1593 c4 876 9 1594 11 1596 2 2 26
-10 54 -26 53 -34 67 -38 56 -18 -4 7 -3 9 2 4 5 -5 9 -14 9 -20 0 -5 52 -40
115 -76 63 -36 171 -100 240 -142 163 -100 188 -114 233 -139 20 -11 67 -39
105 -63 37 -23 76 -47 87 -54 11 -7 76 -47 145 -89 69 -42 239 -144 378 -227
138 -83 250 -152 248 -154 -3 -4 -344 198 -886 524 -173 104 -418 251 -545
326 l-230 137 -5 -1587 c-4 -1395 -7 -1587 -20 -1595 -8 -5 -71 -40 -140 -79
-161 -91 -373 -213 -524 -302 -111 -65 -118 -71 -100 -84 10 -7 150 -92 311
-189 l292 -175 338 200 c186 109 543 323 793 476 250 152 519 316 598 364
l142 86 -2 947 c-2 520 0 944 5 941 4 -2 8 -55 9 -116 1 -62 3 -88 5 -59 4 51
23 75 23 28 0 -14 9 -31 19 -38 11 -8 21 -29 24 -48 2 -19 5 39 5 130 2 161 1
166 -20 179 -13 8 -88 52 -168 99 -194 113 -290 169 -510 299 -102 61 -282
165 -400 233 -118 68 -303 175 -410 238 -423 249 -640 377 -740 437 -230 137
-372 215 -382 209 -6 -4 -8 -3 -5 3 5 9 -149 105 -273 169 -30 16 -57 32 -60
35 -3 4 -23 16 -45 28 -22 12 -69 39 -105 61 -71 43 -90 49 -69 23 13 -15 12
-15 -11 -3 -19 9 -22 10 -13 0 9 -10 9 -15 0 -25 -10 -10 -17 -10 -39 1 -16 8
-28 19 -28 24 0 5 -7 7 -16 3 -14 -5 -15 -3 -6 14 6 11 9 23 6 26 -3 3 12 1
32 -3 21 -5 39 -8 41 -7 1 2 -20 17 -46 35 l-48 33 -39 -22 c-21 -12 -84 -48
-139 -79 -55 -31 -181 -103 -280 -160 -99 -56 -247 -141 -330 -188 -82 -46
-190 -108 -240 -137 -49 -29 -124 -71 -165 -93 -145 -77 -195 -105 -213 -120
-25 -22 -31 -9 -21 40 5 24 6 75 2 113 -4 39 -12 151 -17 250 -6 119 -15 192
-25 216 -8 20 -12 40 -8 44 4 4 -5 5 -20 1 -26 -6 -28 -4 -27 26 0 18 -3 286
-6 595 l-6 562 58 37 c32 20 90 56 128 79 39 23 166 101 282 173 117 72 222
136 233 142 33 17 23 4 -12 -18 -18 -10 -163 -100 -323 -199 -159 -99 -305
-188 -322 -198 l-33 -19 0 -194 c0 -176 2 -194 16 -188 22 9 144 80 882 523
613 367 624 373 677 373 61 0 90 -16 795 -440 217 -131 600 -358 850 -505 459
-270 845 -499 1285 -762 l240 -143 3 957 c2 759 0 959 -10 964 -7 4 -22 15
-33 24 l-20 16 20 -10 c55 -27 57 -31 56 -135 -1 -63 2 -95 9 -91 5 3 10 1 10
-4 0 -6 7 -11 15 -11 11 0 15 -11 15 -41 0 -23 4 -38 9 -34 6 3 12 -16 14 -42
2 -27 4 52 5 174 l2 222 -32 25 c-18 13 -193 121 -388 238 -195 118 -402 244
-460 280 -603 374 -1106 678 -1120 678 -6 0 -30 -13 -53 -29 -23 -16 -94 -60
-157 -98 -267 -163 -695 -422 -830 -503 -80 -48 -248 -150 -375 -227 -126 -77
-342 -207 -480 -290 -137 -82 -333 -201 -435 -263 -102 -62 -250 -152 -330
-200 -80 -47 -175 -106 -212 -129 l-68 -43 -2 -1543 -3 -1544 -47 24 c-25 13
-49 21 -52 18 -3 -4 -6 0 -6 8 0 8 -26 27 -57 43 -31 15 -75 43 -98 62 -23 18
-56 37 -73 40 -18 4 -32 10 -32 14 0 11 -94 70 -111 70 -8 0 -43 20 -78 45
-65 45 -76 47 -83 10 -2 -13 -10 -19 -23 -17 -20 2 -20 2 0 -13 11 -9 63 -41
115 -72 52 -31 214 -126 359 -212 146 -86 267 -157 270 -158 3 -2 6 126 6 285
0 158 2 402 5 542 5 196 6 128 8 -291 l2 -546 34 -18 33 -18 94 53 c52 29 164
94 249 145 225 134 988 579 1105 645 l100 56 3 535 2 535 -46 22 -46 23 -217
-124 c-119 -68 -310 -179 -426 -246 -217 -127 -277 -160 -260 -144 26 25 895
523 913 523 6 0 26 -9 44 -20 23 -14 35 -16 45 -8 9 7 13 7 13 -1 0 -6 -3 -11
-7 -11 -5 0 -7 -37 -5 -82 2 -45 7 -76 12 -69 6 11 12 11 31 1 17 -10 24 -10
27 -1 6 18 16 13 68 -34 52 -47 97 -70 155 -80 20 -3 54 -19 75 -36 34 -27
117 -72 135 -73 12 -1 109 -71 109 -78 0 -5 4 -8 9 -8 5 0 22 -5 38 -11 15 -6
30 -9 33 -7 12 8 18 -74 19 -279 1 -136 5 -224 11 -228 6 -3 10 -1 10 5 0 24
42 -13 59 -53 10 -23 36 -61 57 -84 38 -41 40 -42 83 -34 43 9 91 0 118 -21 7
-5 13 -4 15 3 3 9 9 8 25 -2 17 -10 19 -16 11 -26 -13 -16 4 -17 20 -1 14 14
18 11 26 -22 3 -14 3 -19 0 -12 -3 6 -10 9 -16 6 -6 -4 10 -25 38 -50 27 -24
50 -40 52 -36 1 5 23 2 47 -6 25 -8 42 -18 40 -22 -3 -5 -1 -11 4 -14 5 -4 12
4 14 16 2 13 5 -155 6 -372 1 -217 4 -809 7 -1315 7 -893 6 -920 -12 -936 -21
-17 -85 -55 -444 -262 -273 -157 -430 -247 -855 -494 -170 -99 -411 -237 -535
-307 -299 -170 -490 -280 -575 -331 -71 -43 -172 -102 -520 -303 -104 -60
-271 -156 -370 -214 -99 -57 -245 -142 -325 -188 -80 -46 -225 -130 -322 -187
-97 -56 -184 -103 -193 -103 -8 0 -14 -3 -14 -8 6 -34 -15 -45 -24 -12 -3 11
0 20 6 20 14 0 -95 67 -140 86 -24 10 -34 11 -39 2 -4 -6 -3 -8 2 -5 6 3 16 2
24 -4 10 -6 11 -9 3 -9 -7 0 -13 -7 -13 -15 0 -8 5 -15 11 -15 6 0 8 -9 4 -20
-4 -11 -2 -20 4 -20 6 0 35 -16 65 -35 30 -19 62 -35 70 -35 8 0 18 -5 22 -11
19 -32 -71 15 -376 196 -187 111 -441 260 -815 480 -589 345 -808 473 -925
540 -74 43 -182 106 -240 140 -58 34 -200 117 -317 184 -173 100 -211 126
-208 141 2 11 0 22 -5 25 -5 3 -7 -4 -5 -16 3 -13 0 -19 -8 -16 -14 5 -298
171 -367 214 l-45 28 -7 990 c-9 1147 -7 2053 5 2075 5 8 90 69 189 134 l181
119 -29 21 c-16 12 -89 60 -164 108 -74 47 -145 94 -158 103 l-22 16 2 1769
c3 1557 5 1771 18 1784 8 8 141 91 295 184 154 93 354 215 445 272 91 57 228
141 305 188 77 47 273 167 435 267 162 100 430 265 595 367 165 102 397 244
515 317 118 73 269 168 335 211 66 43 160 101 210 129 86 49 92 51 166 51 89
0 52 18 518 -257 134 -80 334 -196 445 -260 110 -64 307 -177 436 -253 129
-75 324 -187 432 -249 l197 -112 343 209 c498 304 676 415 1123 702 220 141
407 260 415 263 8 4 51 5 95 4 l80 -3 125 -79z m-156 -1640 c-16 -7 -236 -137
-489 -290 -356 -215 -1466 -879 -1507 -902 -5 -2 -8 -2 -8 1 0 3 123 78 273
167 251 150 640 384 1432 860 171 103 314 184 319 181 5 -2 -4 -10 -20 -17z
m176 -81 c0 -2 -9 0 -20 6 -11 6 -20 13 -20 16 0 2 9 0 20 -6 11 -6 20 -13 20
-16z m200 -120 c0 -2 -9 0 -20 6 -11 6 -20 13 -20 16 0 2 9 0 20 -6 11 -6 20
-13 20 -16z m50 -30 c0 -2 -9 0 -20 6 -11 6 -20 13 -20 16 0 2 9 0 20 -6 11
-6 20 -13 20 -16z m298 -176 c89 -55 162 -102 162 -105 0 -3 -10 1 -22 9 -42
27 -303 185 -350 212 -27 16 -48 30 -48 33 0 6 56 -26 258 -149z m212 -134 c0
-2 -9 0 -20 6 -11 6 -20 13 -20 16 0 2 9 0 20 -6 11 -6 20 -13 20 -16z m111
-67 c13 -10 6 -8 -17 5 -22 13 -52 31 -65 41 -13 10 -6 8 17 -5 22 -13 52 -31
65 -41z m69 -43 c0 -2 -9 0 -20 6 -11 6 -20 13 -20 16 0 2 9 0 20 -6 11 -6 20
-13 20 -16z m65 -39 l20 -16 -20 10 c-11 5 -29 17 -40 26 l-20 16 20 -10 c11
-5 29 -17 40 -26z m158 -95 c64 -39 117 -74 117 -77 0 -3 -10 1 -22 9 -13 8
-69 43 -125 77 -57 35 -103 65 -103 68 0 5 -11 11 133 -77z m167 -106 c0 -2
-9 0 -20 6 -11 6 -20 13 -20 16 0 2 9 0 20 -6 11 -6 20 -13 20 -16z m65 -39
l20 -16 -20 10 c-11 5 -29 17 -40 26 l-20 16 20 -10 c11 -5 29 -17 40 -26z
m145 -93 c8 -7 -9 0 -37 18 -29 17 -53 34 -53 37 0 6 71 -37 90 -55z m95 -57
l20 -16 -20 10 c-11 5 -29 17 -40 26 l-20 16 20 -10 c11 -5 29 -17 40 -26z
m-3825 -120 c0 -2 -10 -9 -22 -15 -22 -11 -22 -10 -4 4 21 17 26 19 26 11z
m-65 -41 c-28 -21 -55 -36 -55 -29 0 6 62 45 70 45 3 -1 -4 -8 -15 -16z m4729
-149 c-4 -8 -8 -15 -10 -15 -2 0 -4 7 -4 15 0 8 4 15 10 15 5 0 7 -7 4 -15z
m6 -244 c0 -11 -4 -23 -10 -26 -6 -4 -10 5 -10 19 0 14 5 26 10 26 6 0 10 -9
10 -19z m56 -366 c-3 -8 -14 -15 -25 -15 -19 0 -19 1 2 25 22 24 34 18 23 -10z
m-64 -707 c-9 -9 -12 -7 -12 12 0 19 3 21 12 12 9 -9 9 -15 0 -24z m-5 -95
c-2 -16 -4 -5 -4 22 0 28 2 40 4 28 2 -13 2 -35 0 -50z m-3682 -153 c3 -5 1
-10 -4 -10 -6 0 -11 5 -11 10 0 6 2 10 4 10 3 0 8 -4 11 -10z m25 -19 c0 -5
-8 -12 -17 -14 -10 -2 -4 -3 12 -1 37 5 97 -29 70 -40 -9 -3 -25 -1 -36 5 -11
6 -25 8 -32 6 -7 -2 2 -11 20 -20 17 -9 35 -21 38 -27 4 -6 -14 2 -39 17 -24
15 -42 31 -39 37 4 5 -1 7 -9 3 -11 -4 -15 0 -14 9 4 24 46 46 46 25z m-65
-21 c3 -5 2 -10 -4 -10 -5 0 -13 5 -16 10 -3 6 -2 10 4 10 5 0 13 -4 16 -10z
m160 -40 c-3 -5 -12 -10 -18 -10 -7 0 -6 4 3 10 19 12 23 12 15 0z m33 -43
c21 -25 -2 -35 -33 -14 -16 10 -22 16 -12 13 53 -18 53 -18 33 -2 -11 9 -15
16 -9 16 6 0 15 -6 21 -13z m43 -54 c13 -17 13 -17 -6 -3 -11 8 -22 16 -24 17
-2 2 0 3 6 3 6 0 17 -8 24 -17z m138 -12 c7 -5 11 -13 7 -19 -4 -6 3 -8 16 -5
19 4 20 3 8 -6 -13 -10 -13 -12 0 -22 12 -8 9 -9 -10 -4 -30 9 -71 45 -64 56
7 11 25 11 43 0z m0 -62 c13 -11 20 -19 15 -19 -11 0 -84 49 -84 56 0 7 40
-15 69 -37z m3361 3 c0 -9 -5 -24 -10 -32 -7 -11 -10 -5 -10 23 0 23 4 36 10
32 6 -3 10 -14 10 -23z m140 -22 c0 -5 -2 -10 -4 -10 -3 0 -8 5 -11 10 -3 6
-1 10 4 10 6 0 11 -4 11 -10z m393 -12 c3 -10 9 -10 28 0 l24 13 -23 -20 c-21
-18 -26 -19 -38 -7 -16 17 -18 26 -5 26 5 0 11 -6 14 -12z m-3698 -38 c-3 -5
-17 -10 -31 -10 -14 0 -22 -4 -19 -10 3 -5 4 -10 1 -10 -17 0 -13 22 6 29 31
13 51 13 43 1z m45 -16 c0 -2 -12 -10 -27 -18 -16 -8 -23 -15 -18 -16 6 0 21
-10 35 -21 23 -19 21 -19 -15 2 -48 26 -68 43 -41 33 13 -5 17 -4 12 4 -5 8
-2 10 9 6 9 -4 15 -3 14 2 -3 18 1 23 16 18 8 -4 15 -8 15 -10z m-1780 -119
c0 -4 -167 -105 -275 -165 -120 -66 -36 -9 115 79 162 95 160 94 160 86z
m1885 -5 c3 -6 -1 -7 -9 -4 -18 7 -21 14 -7 14 6 0 13 -4 16 -10z m76 -47 c13
-16 12 -17 -3 -4 -10 7 -18 15 -18 17 0 8 8 3 21 -13z m44 -23 c3 -6 -1 -7 -9
-4 -18 7 -21 14 -7 14 6 0 13 -4 16 -10z m3055 -5 c-7 -8 -17 -15 -22 -15 -6
0 -5 7 2 15 7 8 17 15 22 15 6 0 5 -7 -2 -15z m-5405 -123 c-33 -29 -249 -155
-230 -134 10 11 227 142 235 142 2 0 0 -4 -5 -8z m2760 -96 c8 -7 11 -17 7
-21 -4 -4 2 -5 14 -1 14 4 26 0 40 -16 l19 -23 -22 18 c-12 11 -26 16 -32 13
-6 -4 -24 0 -41 9 -32 17 -41 29 -13 18 11 -4 14 -3 9 5 -10 16 2 15 19 -2z
m-2151 -4527 c49 -28 45 -34 -4 -9 l-41 21 -57 -32 c-31 -18 -82 -47 -112 -65
-30 -18 -181 -105 -335 -194 -154 -89 -347 -201 -430 -249 -614 -358 -1018
-591 -1022 -588 -4 5 398 243 782 464 77 45 280 162 450 260 171 99 384 222
475 273 91 51 183 104 205 117 49 28 46 28 89 2z m106 -65 c0 -2 -9 0 -20 6
-11 6 -20 13 -20 16 0 2 9 0 20 -6 11 -6 20 -13 20 -16z m110 -59 c0 -3 -18 4
-40 15 -22 11 -40 23 -40 25 0 3 18 -4 40 -15 22 -11 40 -23 40 -25z m50 -31
c0 -2 -9 0 -20 6 -11 6 -20 13 -20 16 0 2 9 0 20 -6 11 -6 20 -13 20 -16z
m340 -192 c157 -90 305 -177 330 -192 25 -15 88 -52 140 -82 52 -30 127 -74
166 -97 72 -42 90 -49 78 -30 -5 8 -1 8 13 0 11 -6 24 -7 28 -3 5 4 5 2 1 -5
-4 -7 -14 -10 -24 -7 -14 5 -14 3 2 -10 11 -9 25 -16 32 -16 7 0 14 -4 16 -8
3 -8 159 -106 226 -142 16 -9 62 -36 103 -62 41 -25 103 -62 139 -82 36 -20
58 -36 50 -36 -8 0 -31 10 -50 21 -19 12 -98 59 -175 104 -77 46 -225 133
-330 195 -104 62 -282 167 -395 233 -113 66 -236 139 -275 162 -38 23 -101 60
-140 82 -183 106 -265 156 -265 160 0 6 16 -4 330 -185z"/>
<path d="M4436 9773 c-114 -76 -1195 -752 -1626 -1016 l-290 -179 -2 -686 c-1
-700 2 -1304 7 -1310 2 -2 21 6 44 18 l41 20 1 898 c1 493 3 917 5 942 4 52
-2 47 159 141 66 39 158 95 205 124 47 29 215 132 374 230 338 207 758 470
1026 642 123 79 185 115 165 96 -10 -10 -675 -432 -875 -555 -58 -36 -188
-117 -290 -180 -221 -137 -648 -396 -707 -429 l-43 -24 3 -943 2 -943 390
-228 c215 -126 576 -339 803 -475 227 -135 416 -246 420 -246 4 0 8 694 9
1543 2 848 5 1551 8 1562 3 13 53 49 137 99 315 188 870 540 875 555 1 3 -17
15 -40 26 -23 12 -125 68 -227 125 -377 212 -465 260 -470 259 -3 0 -50 -30
-104 -66z m169 -91 c-3 -3 -11 0 -18 7 -9 10 -8 11 6 5 10 -3 15 -9 12 -12z
m180 -95 c6 -6 -17 4 -50 22 -33 18 -64 38 -70 44 -5 5 17 -5 50 -23 33 -18
65 -38 70 -43z m75 -43 c0 -2 -13 2 -30 11 -16 9 -30 18 -30 21 0 2 14 -2 30
-11 17 -9 30 -18 30 -21z m70 -40 c0 -2 -9 0 -20 6 -11 6 -20 13 -20 16 0 2 9
0 20 -6 11 -6 20 -13 20 -16z m90 -50 c0 -2 -13 2 -30 11 -16 9 -30 18 -30 21
0 2 14 -2 30 -11 17 -9 30 -18 30 -21z m50 -30 c0 -2 -9 0 -20 6 -11 6 -20 13
-20 16 0 2 9 0 20 -6 11 -6 20 -13 20 -16z m70 -40 c0 -2 -9 0 -20 6 -11 6
-20 13 -20 16 0 2 9 0 20 -6 11 -6 20 -13 20 -16z"/>
<path d="M5727 9756 c4 -5 -1 -7 -10 -3 -9 3 -16 3 -14 -2 2 -9 -29 -54 -58
-83 l-20 -20 25 12 c14 7 54 31 89 53 48 31 59 42 48 49 -20 11 -67 6 -60 -6z"/>
<path d="M5534 9594 c-18 -14 -18 -15 4 -4 12 6 22 13 22 15 0 8 -5 6 -26 -11z"/>
<path d="M11650 9230 c-9 -6 -10 -10 -3 -10 6 0 15 5 18 10 8 12 4 12 -15 0z"/>
<path d="M11620 9210 c0 -5 5 -10 11 -10 5 0 7 5 4 10 -3 6 -8 10 -11 10 -2 0
-4 -4 -4 -10z"/>
<path d="M11862 9075 c-1 -16 -5 -55 -8 -85 -5 -42 -4 -52 5 -44 8 7 11 37 8
85 -1 41 -4 61 -5 44z"/>
<path d="M11851 8914 c0 -11 3 -14 6 -6 3 7 2 16 -1 19 -3 4 -6 -2 -5 -13z"/>
<path d="M11863 8315 c0 -33 2 -45 4 -27 2 18 2 45 0 60 -2 15 -4 0 -4 -33z"/>
<path d="M11265 7800 c3 -5 8 -10 11 -10 2 0 4 5 4 10 0 6 -5 10 -11 10 -5 0
-7 -4 -4 -10z"/>
<path d="M11217 7774 c-16 -16 -7 -44 14 -44 15 0 20 5 17 22 -3 22 -19 33
-31 22z"/>
<path d="M11240 7520 c0 -13 11 -13 30 0 12 8 11 10 -7 10 -13 0 -23 -4 -23
-10z"/>
<path d="M11230 7425 c0 -8 5 -15 10 -15 6 0 10 7 10 15 0 8 -4 15 -10 15 -5
0 -10 -7 -10 -15z"/>
<path d="M11210 7370 c0 -5 5 -10 10 -10 6 0 10 5 10 10 0 6 -4 10 -10 10 -5
0 -10 -4 -10 -10z"/>
<path d="M11831 6944 c0 -11 3 -14 6 -6 3 7 2 16 -1 19 -3 4 -6 -2 -5 -13z"/>
<path d="M11440 6810 c0 -5 5 -10 10 -10 6 0 10 5 10 10 0 6 -4 10 -10 10 -5
0 -10 -4 -10 -10z"/>
<path d="M11828 6678 c-4 -10 -14 -18 -23 -18 -8 0 -15 -7 -15 -15 0 -8 6 -15
14 -15 19 0 38 26 34 47 -3 17 -4 17 -10 1z"/>
<path d="M10470 6600 c0 -3 37 -27 81 -54 54 -32 84 -45 91 -38 13 13 -56 67
-73 56 -7 -4 -9 -3 -6 3 11 18 -28 44 -62 41 -17 -1 -31 -5 -31 -8z"/>
<path d="M11505 6460 c-3 -5 -1 -10 4 -10 6 0 11 5 11 10 0 6 -2 10 -4 10 -3
0 -8 -4 -11 -10z"/>
<path d="M11546 6388 c-20 -28 -21 -44 -1 -28 12 10 16 9 21 -4 3 -9 10 -13
15 -10 14 8 11 40 -5 53 -11 10 -17 7 -30 -11z"/>
<path d="M11608 6398 c9 -9 15 -9 24 0 9 9 7 12 -12 12 -19 0 -21 -3 -12 -12z"/>
<path d="M11453 6375 c-17 -18 -16 -25 1 -25 7 0 19 -7 26 -15 7 -8 19 -15 26
-15 20 0 17 27 -3 39 -11 6 -13 11 -5 11 7 0 10 5 7 10 -9 14 -38 12 -52 -5z"/>
<path d="M5850 6145 c-11 -13 -10 -14 4 -9 9 3 16 10 16 15 0 13 -6 11 -20 -6z"/>
<path d="M1296 5797 c3 -10 -4 -13 -27 -12 l-31 2 23 -19 c13 -10 38 -26 54
-35 71 -38 213 -135 254 -172 33 -32 41 -44 32 -54 -12 -16 14 -43 64 -67 17
-8 46 -27 67 -42 20 -16 61 -40 92 -54 39 -17 56 -31 56 -44 0 -25 10 -50 21
-50 5 0 35 -18 66 -40 32 -22 62 -40 67 -40 5 0 33 -18 62 -40 29 -22 59 -40
66 -40 13 -1 -19 -32 -64 -65 -21 -15 -22 -17 -5 -26 9 -5 17 -17 17 -24 0 -8
4 -15 9 -15 6 0 7 -15 4 -34 -4 -28 -2 -35 16 -41 22 -7 29 -31 11 -37 -6 -2
3 -18 20 -36 16 -18 30 -41 30 -51 0 -10 7 -24 16 -32 8 -7 13 -21 10 -32 -6
-25 4 -53 14 -37 11 17 50 -5 50 -28 0 -9 9 -23 20 -30 11 -7 20 -19 20 -27 0
-8 7 -15 15 -15 8 0 34 -18 56 -39 39 -37 89 -59 89 -40 0 5 5 9 10 9 7 0 10
-253 10 -740 0 -506 3 -740 10 -740 6 0 29 9 50 20 l40 20 0 824 c0 452 3 878
7 945 l6 121 23 -15 c17 -11 25 -12 30 -3 4 7 3 8 -4 4 -12 -7 -16 5 -13 32 1
6 -5 12 -14 12 -9 0 -13 5 -10 10 3 6 1 10 -6 10 -7 0 -10 3 -7 6 5 4 41 -13
68 -34 2 -1 -2 -7 -10 -12 -8 -6 -10 -10 -4 -10 7 0 15 -11 18 -24 7 -29 85
-79 103 -65 18 15 9 44 -13 41 -15 -2 -16 -1 -4 7 16 11 44 -5 35 -19 -3 -5 1
-11 7 -13 10 -4 9 -6 -1 -6 -11 -1 -11 -4 0 -18 12 -15 12 -16 -3 -10 -25 9
-22 0 3 -14 15 -8 19 -8 15 0 -4 6 -2 11 3 11 6 0 11 -7 11 -16 0 -10 6 -14
15 -10 8 3 14 1 12 -4 -1 -6 17 -21 39 -35 37 -22 43 -23 48 -8 4 9 2 20 -4
23 -8 5 -6 9 5 13 9 4 13 3 10 -3 -3 -6 -2 -10 4 -10 5 0 12 4 15 9 8 12 -20
22 -41 14 -11 -4 -14 -3 -9 6 5 7 0 18 -10 26 -21 16 -38 19 -30 6 3 -5 -1
-12 -10 -15 -21 -8 -24 -8 -24 5 0 5 4 8 9 5 5 -4 8 2 6 11 -1 11 -9 17 -20
15 -10 -2 -14 1 -10 7 4 7 0 8 -11 4 -11 -4 -15 -2 -11 4 4 6 -4 18 -18 27
-14 9 -25 14 -25 11 0 -2 -9 3 -20 13 -19 16 -38 27 -149 92 -24 14 -107 64
-184 111 -203 124 -192 118 -422 253 -115 69 -232 139 -260 156 -27 17 -58 32
-67 33 -10 1 -18 4 -18 8 0 13 -81 60 -92 53 -6 -4 -8 -3 -5 3 4 6 -24 29 -64
53 -68 41 -95 46 -69 15 9 -11 9 -15 1 -15 -7 0 -9 -5 -5 -12 4 -6 -10 -1 -32
12 -48 28 -67 46 -40 36 16 -5 17 -4 7 8 -7 8 -9 21 -5 27 5 9 2 10 -9 6 -11
-4 -14 -2 -10 8 3 10 -5 18 -22 25 -34 13 -35 13 -29 -3z m345 -214 c13 -16
12 -17 -3 -4 -17 13 -22 21 -14 21 2 0 10 -8 17 -17z m23 -58 c14 -11 16 -15
5 -15 -8 0 -23 7 -33 15 -14 11 -16 15 -5 15 8 0 23 -7 33 -15z m51 -35 c3 -5
1 -10 -4 -10 -6 0 -11 5 -11 10 0 6 2 10 4 10 3 0 8 -4 11 -10z m45 -32 c0 -6
-6 -5 -15 2 -8 7 -15 14 -15 16 0 2 7 1 15 -2 8 -4 15 -11 15 -16z m181 -39
c11 -5 17 -14 14 -19 -3 -6 0 -7 8 -4 8 3 20 -2 27 -11 11 -13 10 -14 -4 -9
-19 7 -22 -11 -3 -20 6 -3 1 -3 -13 0 l-25 7 20 -23 c18 -21 16 -21 -32 6 -58
32 -63 39 -33 49 23 7 26 21 8 28 -10 4 -10 6 0 6 7 1 22 -4 33 -10z m265
-231 c4 -6 -10 -1 -32 12 -56 33 -66 46 -17 21 23 -11 45 -26 49 -33z m157
-89 l22 -21 -22 11 c-12 6 -25 16 -28 21 -11 17 5 11 28 -11z m72 11 c-3 -5
-1 -10 6 -10 7 0 10 -3 6 -6 -9 -9 -28 6 -22 17 4 5 8 9 11 9 3 0 2 -4 -1 -10z
m75 -41 c0 -5 -4 -9 -10 -9 -5 0 -10 5 -10 11 0 5 -5 7 -11 3 -16 -9 11 -25
32 -18 11 3 18 -3 22 -16 3 -11 1 -20 -5 -20 -6 0 -7 -7 -4 -16 7 -19 -81 28
-102 55 -7 9 -16 15 -20 14 -4 -1 -9 0 -11 3 -5 5 30 -3 53 -12 15 -6 17 -4
11 6 -5 8 -4 11 3 6 6 -3 13 -2 17 3 7 12 35 3 35 -10z m358 -226 c-5 -6 -16
-9 -24 -6 -23 8 -16 21 10 19 18 -1 22 -4 14 -13z"/>
<path d="M2450 5046 c0 -2 7 -7 16 -10 8 -3 12 -2 9 4 -6 10 -25 14 -25 6z"/>
<path d="M11795 5674 c-22 -14 -31 -22 -20 -18 11 4 28 7 37 8 9 0 15 2 13 5
-3 2 0 10 6 18 16 19 9 16 -36 -13z"/>
<path d="M4286 5649 c3 -5 14 -14 24 -19 16 -8 18 -7 14 4 -3 8 -14 16 -25 19
-10 3 -17 1 -13 -4z"/>
<path d="M11865 4895 c0 -418 1 -588 2 -377 2 211 2 553 0 760 -1 207 -2 35
-2 -383z"/>
<path d="M8400 5509 c0 -5 5 -7 10 -4 6 3 10 8 10 11 0 2 -4 4 -10 4 -5 0 -10
-5 -10 -11z"/>
<path d="M8462 5449 c2 -6 8 -10 13 -10 5 0 11 4 13 10 2 6 -4 11 -13 11 -9 0
-15 -5 -13 -11z"/>
<path d="M4735 5380 c3 -5 8 -10 11 -10 2 0 4 5 4 10 0 6 -5 10 -11 10 -5 0
-7 -4 -4 -10z"/>
<path d="M4981 5344 c0 -11 3 -14 6 -6 3 7 2 16 -1 19 -3 4 -6 -2 -5 -13z"/>
<path d="M8646 5313 c-3 -10 -9 -24 -12 -32 -4 -8 -2 -11 4 -7 6 3 13 0 15 -6
3 -7 6 4 6 25 1 40 -3 47 -13 20z"/>
<path d="M4861 5307 c2 -2 18 -11 34 -21 l30 -17 -24 20 c-13 12 -28 21 -34
21 -6 0 -8 -1 -6 -3z"/>
<path d="M2630 3987 l0 -933 43 -24 c75 -42 565 -329 802 -470 226 -135 381
-226 820 -482 120 -70 225 -128 232 -128 13 0 430 237 770 438 120 71 283 167
363 214 232 137 1507 880 1592 928 l78 44 0 643 c0 569 -4 681 -22 634 -1 -5
-21 -21 -43 -36 -22 -15 -33 -25 -23 -22 14 5 16 -2 13 -51 -4 -76 -28 -303
-41 -388 -3 -23 -1 -57 5 -75 15 -46 18 -138 5 -147 -14 -9 -35 -72 -29 -82 6
-10 -30 -36 -120 -85 -38 -21 -82 -46 -97 -56 -14 -11 -28 -19 -31 -19 -3 0
-58 -31 -123 -69 -249 -143 -311 -179 -389 -221 -44 -24 -116 -64 -160 -90
-44 -26 -136 -79 -205 -118 -225 -127 -305 -174 -322 -189 -15 -14 -23 -11
-85 27 -60 37 -139 82 -500 289 -54 30 -98 49 -105 45 -7 -4 -10 -3 -5 1 4 5
-20 25 -53 44 -33 20 -109 65 -168 100 -108 65 -220 132 -502 299 -145 85
-190 107 -175 82 3 -5 0 -7 -8 -4 -8 3 -18 1 -22 -5 -3 -6 -12 -11 -18 -11 -8
0 -8 3 1 9 11 6 9 9 -6 13 -11 3 -26 1 -33 -4 -11 -8 -10 -8 4 -4 10 3 15 2
12 -4 -3 -5 4 -14 15 -20 16 -9 25 -8 38 2 15 12 16 11 4 -4 -12 -15 -10 -19
17 -32 34 -18 45 -20 36 -7 -3 6 5 15 17 21 22 11 22 10 4 -4 -14 -12 -16 -16
-5 -16 11 0 12 -2 0 -9 -9 -6 -10 -11 -2 -15 15 -10 31 2 25 18 -7 18 12 30
22 15 5 -8 3 -9 -6 -4 -10 6 -12 4 -7 -7 3 -9 1 -20 -4 -25 -13 -13 76 -67 93
-57 6 4 8 3 5 -4 -9 -13 79 -65 95 -56 6 4 8 3 5 -3 -8 -13 249 -166 264 -158
5 4 8 2 7 -4 -2 -5 67 -51 152 -102 364 -216 484 -287 640 -376 203 -117 213
-123 207 -130 -3 -3 -50 21 -104 52 -334 195 -453 266 -863 510 -250 149 -601
359 -780 465 -179 106 -503 299 -720 428 -217 129 -433 257 -480 285 -47 27
-95 56 -107 64 l-23 13 0 -933z m4660 -31 c0 -5 -54 -36 -175 -101 -38 -21
-65 -34 -60 -28 9 9 226 133 233 133 1 0 2 -2 2 -4z m-250 -141 c0 -2 -13 -11
-30 -20 -38 -19 -40 -11 -2 9 31 17 32 18 32 11z m-75 -44 c-9 -7 -96 -58
-535 -311 -74 -43 -245 -142 -379 -219 -134 -78 -246 -140 -247 -138 -5 5 171
109 596 353 600 344 590 339 565 315z m-2205 -65 c0 -3 -4 -8 -10 -11 -5 -3
-10 -1 -10 4 0 6 5 11 10 11 6 0 10 -2 10 -4z m130 -46 c8 -5 11 -10 5 -10 -5
0 -17 5 -25 10 -8 5 -10 10 -5 10 6 0 17 -5 25 -10z m-46 -12 c-5 -7 -2 -9 8
-6 8 4 15 0 15 -7 0 -10 -5 -11 -19 -4 -16 9 -17 29 -2 29 3 0 2 -5 -2 -12z
m110 -44 c3 -8 2 -12 -4 -9 -6 3 -10 10 -10 16 0 14 7 11 14 -7z m131 -104 c3
-6 -1 -7 -9 -4 -18 7 -21 14 -7 14 6 0 13 -4 16 -10z"/>
<path d="M1894 4705 c0 -55 1 -76 3 -47 2 29 2 74 0 100 -2 26 -3 2 -3 -53z"/>
<path d="M2991 4771 c-8 -5 -16 -17 -17 -27 -2 -12 0 -14 9 -5 16 16 32 14 18
-3 -9 -11 -4 -18 24 -35 20 -12 40 -19 45 -16 5 3 12 0 16 -6 5 -8 2 -10 -7
-5 -8 4 -5 0 6 -8 11 -9 25 -14 33 -11 7 2 11 1 8 -3 -8 -13 101 -75 115 -66
7 4 9 3 6 -4 -8 -12 101 -77 122 -73 7 1 10 -2 7 -7 -7 -12 182 -124 196 -116
6 4 8 3 4 -4 -4 -6 25 -28 71 -54 97 -54 101 -56 83 -32 -14 17 -14 18 2 6 10
-8 16 -18 15 -23 -3 -12 133 -90 146 -82 6 3 7 1 3 -5 -4 -7 -5 -12 -2 -12 2
0 12 -3 22 -7 10 -4 15 -2 11 4 -3 5 0 10 8 10 11 0 12 -4 4 -13 -8 -9 1 -19
35 -39 25 -15 51 -23 57 -19 7 4 9 3 5 -4 -8 -13 10 -26 25 -16 8 4 7 9 -2 15
-7 4 -10 11 -7 15 4 3 22 -3 40 -14 21 -13 39 -18 47 -12 15 9 7 14 -187 132
-62 37 -115 68 -119 68 -3 0 -25 14 -50 30 -24 17 -50 27 -56 24 -7 -4 -9 -4
-5 1 7 8 -199 139 -272 173 -19 10 -37 20 -40 23 -11 14 -96 53 -109 50 -7 -1
-10 2 -7 8 4 5 1 13 -5 17 -7 4 -9 3 -6 -3 7 -11 -22 -28 -31 -18 -3 3 0 5 6
5 24 0 11 20 -30 50 -23 17 -48 28 -55 25 -8 -2 -12 -1 -9 3 5 9 -96 73 -119
76 -8 1 -18 5 -21 9 -9 9 -16 9 -33 -2z m54 -13 c5 4 4 0 -1 -8 -5 -8 -9 -18
-9 -22 0 -3 -4 -10 -9 -15 -6 -5 -6 -2 -1 6 6 11 4 13 -11 8 -17 -6 -17 -5 -2
5 15 11 15 13 0 26 -15 12 -15 12 4 3 12 -6 25 -7 29 -3z m159 -96 c3 -5 -1
-9 -9 -9 -8 0 -12 4 -9 9 3 4 7 8 9 8 2 0 6 -4 9 -8z m152 -92 c21 -10 33 -19
27 -20 -7 0 -13 -4 -13 -10 0 -5 7 -7 15 -4 8 3 22 -2 32 -11 16 -17 16 -17
-6 -10 -21 6 -22 5 -11 -17 l11 -23 -19 24 c-11 13 -24 21 -29 18 -6 -4 -20 3
-31 13 -12 11 -33 25 -47 30 -15 6 -23 14 -20 20 10 16 48 12 91 -10z m324
-219 c7 -14 7 -22 -2 -27 -6 -4 -8 -3 -5 2 3 6 2 16 -4 24 -7 13 -9 12 -9 -3
0 -15 -3 -15 -20 -5 -20 13 -20 13 2 20 13 3 24 6 25 7 1 1 7 -8 13 -18z m161
-118 c13 -16 12 -17 -3 -4 -17 13 -22 21 -14 21 2 0 10 -8 17 -17z m264 -108
c39 -32 28 -32 -15 0 -19 14 -30 25 -24 25 5 0 23 -11 39 -25z"/>
<path d="M11862 4090 c0 -14 2 -19 5 -12 2 6 2 18 0 25 -3 6 -5 1 -5 -13z"/>
<path d="M7980 3115 c-14 -8 -20 -14 -14 -15 5 0 19 7 30 15 24 18 16 19 -16
0z"/>
<path d="M7706 2955 c-11 -8 -15 -15 -9 -15 6 0 16 7 23 15 16 19 11 19 -14 0z"/>
<path d="M1226 2247 c-17 -12 -17 -14 -3 -20 9 -3 16 -3 16 1 -3 20 3 23 19
11 15 -13 16 -12 3 4 -16 20 -13 20 -35 4z"/>
<path d="M1318 2239 c-9 -5 -15 -16 -12 -24 6 -14 -20 -14 -49 0 -6 4 -3 0 7
-9 10 -8 22 -13 27 -11 4 3 9 1 11 -4 6 -16 172 -109 186 -103 10 3 11 7 2 12
-8 5 -9 10 -2 14 6 4 15 -2 21 -11 9 -16 10 -15 8 5 -4 29 -25 44 -51 36 -12
-4 -16 -2 -12 5 5 7 2 10 -6 9 -7 -2 -12 2 -11 7 1 6 -7 11 -18 11 -17 0 -18
-2 -5 -11 9 -7 11 -16 7 -24 -11 -18 -53 8 -46 28 4 10 2 11 -8 3 -8 -7 -18
-7 -27 -2 -13 8 -12 10 2 10 11 0 15 5 12 15 -5 13 -9 13 -22 3 -12 -10 -14
-10 -8 -1 7 12 17 53 13 53 -1 0 -10 -5 -19 -11z m155 -107 c2 7 8 10 12 6 11
-10 3 -18 -24 -23 -14 -3 -19 0 -15 7 5 7 2 9 -9 5 -11 -4 -14 -2 -10 9 5 13
8 13 23 -1 14 -13 19 -13 23 -3z"/>
<path d="M1594 2086 c11 -9 24 -16 30 -16 12 0 7 5 -24 19 -24 11 -24 11 -6
-3z"/>
<path d="M1496 2071 c5 -4 32 -20 59 -35 28 -15 41 -20 31 -12 -11 9 -16 16
-10 16 10 1 -54 32 -75 36 -7 1 -10 -1 -5 -5z"/>
<path d="M1643 1995 c0 -8 4 -12 9 -9 5 3 6 10 3 15 -9 13 -12 11 -12 -6z"/>
<path d="M1755 1990 c3 -5 11 -10 16 -10 6 0 7 5 4 10 -3 6 -11 10 -16 10 -6
0 -7 -4 -4 -10z"/>
<path d="M1660 1976 c0 -3 14 -12 30 -21 17 -9 30 -13 30 -11 0 3 -13 12 -30
21 -16 9 -30 13 -30 11z"/>
<path d="M1795 1959 c-4 -6 -14 -8 -23 -4 -9 3 -13 3 -9 -1 4 -4 2 -13 -4 -20
-8 -9 7 -23 63 -55 96 -55 274 -159 540 -313 119 -69 220 -126 224 -126 4 0 0
8 -9 18 -14 16 -14 17 10 19 14 0 21 -2 15 -6 -27 -17 0 -45 97 -101 57 -33
108 -57 113 -54 7 5 8 2 3 -6 -6 -9 -1 -10 16 -5 16 4 20 3 11 -3 -16 -11 163
-116 180 -106 7 4 8 3 4 -4 -4 -6 6 -18 23 -27 22 -11 32 -12 37 -3 4 6 3 8
-3 5 -6 -4 -17 0 -24 9 -11 13 -9 14 17 9 l29 -7 -31 20 c-58 37 -44 40 24 5
87 -44 44 -12 -65 49 -47 26 -90 45 -96 41 -5 -3 -7 -1 -3 5 3 6 2 13 -4 17
-5 3 -10 -3 -10 -14 0 -12 7 -22 15 -22 28 -3 33 -4 41 -11 4 -5 2 -8 -6 -8
-9 0 -10 -3 -1 -13 8 -10 7 -14 -4 -14 -7 0 -14 3 -13 6 2 25 -4 33 -24 28
-13 -3 -34 1 -48 9 l-25 15 30 -5 c27 -4 28 -3 11 10 -10 7 -23 11 -29 7 -6
-3 -7 -1 -4 5 4 5 16 8 27 5 11 -3 20 0 20 6 0 6 -7 8 -17 4 -10 -4 -14 -2
-10 4 4 6 -29 31 -76 59 -129 76 -145 84 -169 84 -16 0 -19 3 -10 9 9 5 -6 18
-48 40 -33 18 -60 30 -60 27 0 -3 12 -12 28 -20 25 -14 25 -15 5 -16 -16 0
-21 -4 -17 -15 8 -20 1 -19 -36 3 -16 10 -27 22 -23 26 4 4 -1 4 -11 0 -14 -5
-17 -4 -12 5 4 6 4 11 -1 10 -19 -3 -34 2 -28 10 3 5 0 13 -6 17 -8 5 -8 8 1
14 8 5 7 9 -5 13 -11 5 -14 3 -9 -6 4 -6 4 -9 -1 -5 -4 4 -15 2 -23 -5 -13
-10 -14 -9 -7 2 6 11 4 13 -9 8 -11 -4 -15 -3 -11 4 4 6 13 8 21 5 7 -3 16 -1
20 5 3 6 12 8 20 5 28 -11 13 3 -28 27 -24 13 -61 34 -83 48 -30 17 -36 19
-26 6 12 -15 12 -17 -4 -11 -12 5 -16 4 -12 -3 4 -6 0 -14 -9 -17 -18 -7 -138
57 -127 67 3 4 12 2 20 -5 7 -6 15 -9 18 -6 2 2 -9 12 -25 22 -26 15 -29 15
-24 1 6 -14 3 -14 -20 -4 -20 9 -23 15 -14 22 9 6 7 7 -6 3 -25 -8 -50 12 -36
29 8 10 8 15 -1 21 -8 4 -9 3 -5 -5 14 -22 -21 -22 -58 0 -36 21 -36 22 -21
48 l16 26 -20 -23 c-17 -19 -23 -21 -45 -11 -14 7 -23 16 -20 21 3 5 12 4 20
-3 8 -6 17 -9 21 -5 3 3 1 6 -6 6 -7 0 -9 5 -6 10 3 6 -2 10 -12 10 -15 0 -16
2 -3 10 11 7 19 5 28 -7 6 -9 12 -12 12 -7 0 17 -22 33 -38 27 -10 -4 -13 -2
-8 5 5 8 2 10 -9 6 -10 -4 -15 -2 -13 7 3 15 -39 22 -48 8 -3 -5 -11 -9 -17
-9 -7 1 -2 9 10 19 19 16 20 20 7 25 -21 8 -22 8 -29 -5z m7 -15 l-22 -15 22
-20 23 -20 -33 18 -32 18 22 17 c13 10 27 18 33 18 5 0 -1 -7 -13 -16z m59
-21 c-10 -4 -8 -9 10 -20 23 -13 23 -14 2 -8 -14 4 -23 2 -23 -4 0 -6 9 -11
21 -11 11 0 18 -4 14 -10 -9 -14 -57 11 -51 27 3 7 1 13 -5 13 -21 0 0 16 23
17 13 0 17 -1 9 -4z m427 -274 c-2 -3 4 -14 12 -24 14 -18 13 -18 -17 0 -23
13 -29 21 -20 27 13 8 31 6 25 -3z m46 -31 c-5 -8 -2 -9 11 -4 15 5 16 4 5 -9
-10 -12 -15 -13 -21 -3 -7 12 -3 28 7 28 3 0 2 -5 -2 -12z m81 -66 c-3 -3 -11
0 -18 7 -9 10 -8 11 6 5 10 -3 15 -9 12 -12z m173 -57 c-2 -6 -7 -10 -13 -10
-5 0 -16 -4 -22 -8 -18 -11 -16 -1 3 18 17 17 38 17 32 0z m49 -52 c0 -9 -4
-10 -14 -2 -7 6 -13 12 -13 14 0 1 6 2 13 2 8 0 14 -6 14 -14z m143 -53 c8 -5
16 -14 16 -20 1 -5 2 -14 3 -20 0 -5 6 -10 12 -10 8 0 8 5 -1 15 -16 19 -1 19
24 0 15 -11 16 -15 5 -16 -8 -1 -24 -3 -36 -4 -12 -1 -20 2 -17 7 3 5 0 8 -7
7 -8 -1 -25 2 -38 8 -22 9 -22 10 -6 17 10 4 21 2 25 -5 5 -7 10 -8 14 -1 4 6
-2 15 -11 21 -10 6 -13 10 -8 11 6 0 17 -5 25 -10z"/>
<path d="M2087 1799 c7 -7 15 -10 18 -7 3 3 -2 9 -12 12 -14 6 -15 5 -6 -5z"/>
<path d="M2140 1765 c14 -7 24 -17 24 -22 -1 -4 3 -7 8 -5 6 2 21 -6 33 -18
12 -11 26 -17 31 -13 5 4 3 1 -3 -7 -10 -11 -16 -11 -25 -2 -17 17 -33 15 -19
-2 13 -15 54 -29 46 -16 -3 5 3 13 12 19 17 9 17 10 -2 17 -11 4 -41 20 -66
36 -25 15 -50 28 -55 28 -5 -1 2 -7 16 -15z"/>
<path d="M2440 1596 c0 -3 9 -10 20 -16 11 -6 20 -8 20 -6 0 3 -9 10 -20 16
-11 6 -20 8 -20 6z"/>
<path d="M3162 1162 c-7 -2 -12 -8 -12 -14 0 -5 8 -7 19 -3 13 4 20 0 24 -15
7 -28 -9 -34 -31 -13 -10 10 -26 25 -37 33 -15 12 -17 12 -10 1 6 -11 4 -13
-11 -7 -31 12 -10 -3 86 -59 82 -49 93 -53 107 -39 14 13 13 14 -12 8 -20 -5
-26 -4 -21 5 4 6 13 11 20 11 7 0 13 6 13 13 0 16 -118 85 -135 79z m83 -49
c19 -15 19 -15 -10 -8 -25 5 -28 4 -17 -7 7 -7 18 -13 25 -13 14 0 22 -18 10
-22 -17 -5 -54 33 -47 50 8 21 13 21 39 0z"/>
<path d="M3165 1130 c-3 -5 -1 -10 4 -10 6 0 11 5 11 10 0 6 -2 10 -4 10 -3 0
-8 -4 -11 -10z"/>
<path d="M3327 1059 c7 -7 15 -10 18 -7 3 3 -2 9 -12 12 -14 6 -15 5 -6 -5z"/>
<path d="M3300 1030 c0 -5 28 -25 61 -45 48 -28 64 -33 73 -24 8 9 8 10 -1 5
-12 -7 -77 27 -68 36 3 3 -3 11 -12 19 -16 13 -17 12 -4 -3 16 -21 4 -23 -21
-4 -10 7 -15 16 -11 19 3 4 1 7 -5 7 -7 0 -12 -4 -12 -10z"/>
<path d="M3450 935 c0 -2 15 -12 33 -20 l32 -16 -25 20 c-24 20 -40 26 -40 16z"/>
<path d="M3538 907 c-19 -15 -23 -11 57 -56 22 -12 30 -15 18 -5 -27 19 -28
27 -8 47 13 13 13 16 0 21 -8 3 -14 2 -13 -2 1 -4 -2 -15 -6 -24 -6 -14 -12
-15 -28 -7 -15 8 -17 13 -7 25 14 17 10 18 -13 1z"/>
<path d="M3662 823 c2 -9 10 -18 18 -20 12 -4 13 -3 1 5 -11 8 -10 11 5 14 17
3 16 5 -4 10 -18 5 -22 3 -20 -9z"/>
<path d="M3700 796 c0 -9 61 -48 66 -43 7 7 -18 47 -29 47 -4 0 -5 -4 -2 -10
3 -5 1 -10 -4 -10 -6 0 -11 5 -11 10 0 6 -4 10 -10 10 -5 0 -10 -2 -10 -4z"/>
<path d="M3760 792 c0 -6 29 -33 35 -32 21 1 26 -2 23 -16 -2 -10 4 -19 12
-21 13 -4 13 -3 0 6 -13 10 -13 11 0 11 10 1 5 9 -14 24 -20 17 -24 25 -15 29
8 2 2 4 -13 3 -16 0 -28 -2 -28 -4z"/>
<path d="M3932 715 c9 -10 21 -16 28 -13 7 2 -1 10 -16 17 -27 12 -28 11 -12
-4z"/>
<path d="M3860 695 c7 -8 18 -15 25 -15 7 0 18 -7 25 -15 7 -8 20 -15 29 -15
10 0 7 5 -9 13 -14 8 -24 19 -22 27 2 7 -3 10 -12 7 -9 -4 -18 -2 -21 3 -4 6
-11 10 -17 10 -7 0 -6 -6 2 -15z"/>
<path d="M4036 589 c32 -21 49 -25 39 -9 -3 6 -1 10 4 10 6 0 11 -4 11 -10 0
-5 4 -10 9 -10 5 0 7 9 4 20 -4 15 -9 17 -23 10 -22 -12 -33 -13 -27 -2 3 4
-6 8 -20 9 l-26 1 29 -19z"/>
<path d="M4100 554 c0 -2 9 -8 20 -14 11 -6 20 -7 20 -2 0 6 -9 12 -20 15 -11
3 -20 3 -20 1z"/>
<path d="M4169 513 c17 -11 26 -12 34 -4 6 6 9 11 7 12 -3 0 -18 2 -34 4 -29
4 -29 4 -7 -12z"/>
<path d="M4290 443 c32 -29 55 -31 38 -4 -6 10 -18 17 -25 14 -7 -3 -19 -1
-26 3 -7 5 -1 -1 13 -13z"/>
<path d="M7576 6655 c10 -8 24 -14 29 -14 6 0 1 6 -9 14 -11 8 -24 15 -30 15
-5 0 -1 -7 10 -15z"/>
</g>
</svg>
